<svg viewBox="0 0 1630 512" fill="none" xmlns="http://www.w3.org/2000/svg">
<path fill-rule="evenodd" clip-rule="evenodd" d="M385.094 146.885L234.503 59.9409C226.582 55.3679 216.823 55.3679 208.902 59.9409L58.3111 146.885C50.3904 151.458 45.5111 159.909 45.5111 169.055V342.943C45.5111 352.089 50.3904 360.54 58.3111 365.113L208.902 452.057C216.823 456.63 226.582 456.63 234.503 452.057L385.094 365.113C393.015 360.54 397.894 352.089 397.894 342.943V169.055C397.894 159.909 393.015 151.458 385.094 146.885ZM257.258 20.5271C235.256 7.82431 208.149 7.82431 186.147 20.5271L35.5556 107.471C13.5537 120.174 0 143.65 0 169.055V342.943C0 368.349 13.5537 391.824 35.5555 404.527L186.147 491.471C208.149 504.174 235.256 504.174 257.258 491.471L407.849 404.527C429.851 391.824 443.405 368.349 443.405 342.943V169.055C443.405 143.65 429.851 120.174 407.849 107.471L257.258 20.5271ZM198.947 125.155C198.947 112.587 209.135 102.399 221.702 102.399C234.27 102.399 244.458 112.587 244.458 125.155V187.733C244.458 200.3 234.27 210.488 221.702 210.488C209.135 210.488 198.947 200.3 198.947 187.733V125.155ZM182.289 278.755C176.005 267.871 162.088 264.142 151.204 270.426L97.01 301.715C86.1262 307.998 82.3972 321.915 88.6809 332.799C94.9647 343.683 108.882 347.412 119.766 341.128L173.96 309.839C184.843 303.556 188.572 289.639 182.289 278.755ZM346.395 301.715C357.279 307.998 361.008 321.915 354.724 332.799C348.44 343.683 334.523 347.412 323.639 341.128L269.445 309.839C258.562 303.556 254.832 289.639 261.116 278.755C267.4 267.871 281.317 264.142 292.201 270.426L346.395 301.715ZM221.702 233.244C209.135 233.244 198.947 243.432 198.947 255.999C198.947 268.567 209.135 278.755 221.702 278.755C234.27 278.755 244.458 268.567 244.458 255.999C244.458 243.432 234.27 233.244 221.702 233.244Z" fill="url(#paint0_linear_201_66)"/>
<path fill-rule="evenodd" clip-rule="evenodd" d="M385.094 146.885L234.503 59.9409C226.582 55.3679 216.823 55.3679 208.902 59.9409L58.3111 146.885C50.3904 151.458 45.5111 159.909 45.5111 169.055V342.943C45.5111 352.089 50.3904 360.54 58.3111 365.113L208.902 452.057C216.823 456.63 226.582 456.63 234.503 452.057L385.094 365.113C393.015 360.54 397.894 352.089 397.894 342.943V169.055C397.894 159.909 393.015 151.458 385.094 146.885ZM257.258 20.5271C235.256 7.82431 208.149 7.82431 186.147 20.5271L35.5556 107.471C13.5537 120.174 0 143.65 0 169.055V342.943C0 368.349 13.5537 391.824 35.5555 404.527L186.147 491.471C208.149 504.174 235.256 504.174 257.258 491.471L407.849 404.527C429.851 391.824 443.405 368.349 443.405 342.943V169.055C443.405 143.65 429.851 120.174 407.849 107.471L257.258 20.5271ZM198.947 125.155C198.947 112.587 209.135 102.399 221.702 102.399C234.27 102.399 244.458 112.587 244.458 125.155V187.733C244.458 200.3 234.27 210.488 221.702 210.488C209.135 210.488 198.947 200.3 198.947 187.733V125.155ZM182.289 278.755C176.005 267.871 162.088 264.142 151.204 270.426L97.01 301.715C86.1262 307.998 82.3972 321.915 88.6809 332.799C94.9647 343.683 108.882 347.412 119.766 341.128L173.96 309.839C184.843 303.556 188.572 289.639 182.289 278.755ZM346.395 301.715C357.279 307.998 361.008 321.915 354.724 332.799C348.44 343.683 334.523 347.412 323.639 341.128L269.445 309.839C258.562 303.556 254.832 289.639 261.116 278.755C267.4 267.871 281.317 264.142 292.201 270.426L346.395 301.715ZM221.702 233.244C209.135 233.244 198.947 243.432 198.947 255.999C198.947 268.567 209.135 278.755 221.702 278.755C234.27 278.755 244.458 268.567 244.458 255.999C244.458 243.432 234.27 233.244 221.702 233.244Z" fill="url(#paint1_radial_201_66)"/>
<path fill-rule="evenodd" clip-rule="evenodd" d="M385.094 146.885L234.503 59.9409C226.582 55.3679 216.823 55.3679 208.902 59.9409L58.3111 146.885C50.3904 151.458 45.5111 159.909 45.5111 169.055V342.943C45.5111 352.089 50.3904 360.54 58.3111 365.113L208.902 452.057C216.823 456.63 226.582 456.63 234.503 452.057L385.094 365.113C393.015 360.54 397.894 352.089 397.894 342.943V169.055C397.894 159.909 393.015 151.458 385.094 146.885ZM257.258 20.5271C235.256 7.82431 208.149 7.82431 186.147 20.5271L35.5556 107.471C13.5537 120.174 0 143.65 0 169.055V342.943C0 368.349 13.5537 391.824 35.5555 404.527L186.147 491.471C208.149 504.174 235.256 504.174 257.258 491.471L407.849 404.527C429.851 391.824 443.405 368.349 443.405 342.943V169.055C443.405 143.65 429.851 120.174 407.849 107.471L257.258 20.5271ZM198.947 125.155C198.947 112.587 209.135 102.399 221.702 102.399C234.27 102.399 244.458 112.587 244.458 125.155V187.733C244.458 200.3 234.27 210.488 221.702 210.488C209.135 210.488 198.947 200.3 198.947 187.733V125.155ZM182.289 278.755C176.005 267.871 162.088 264.142 151.204 270.426L97.01 301.715C86.1262 307.998 82.3972 321.915 88.6809 332.799C94.9647 343.683 108.882 347.412 119.766 341.128L173.96 309.839C184.843 303.556 188.572 289.639 182.289 278.755ZM346.395 301.715C357.279 307.998 361.008 321.915 354.724 332.799C348.44 343.683 334.523 347.412 323.639 341.128L269.445 309.839C258.562 303.556 254.832 289.639 261.116 278.755C267.4 267.871 281.317 264.142 292.201 270.426L346.395 301.715ZM221.702 233.244C209.135 233.244 198.947 243.432 198.947 255.999C198.947 268.567 209.135 278.755 221.702 278.755C234.27 278.755 244.458 268.567 244.458 255.999C244.458 243.432 234.27 233.244 221.702 233.244Z" fill="url(#paint2_radial_201_66)"/>
<path fill-rule="evenodd" clip-rule="evenodd" d="M385.094 146.885L234.503 59.9409C226.582 55.3679 216.823 55.3679 208.902 59.9409L58.3111 146.885C50.3904 151.458 45.5111 159.909 45.5111 169.055V342.943C45.5111 352.089 50.3904 360.54 58.3111 365.113L208.902 452.057C216.823 456.63 226.582 456.63 234.503 452.057L385.094 365.113C393.015 360.54 397.894 352.089 397.894 342.943V169.055C397.894 159.909 393.015 151.458 385.094 146.885ZM257.258 20.5271C235.256 7.82431 208.149 7.82431 186.147 20.5271L35.5556 107.471C13.5537 120.174 0 143.65 0 169.055V342.943C0 368.349 13.5537 391.824 35.5555 404.527L186.147 491.471C208.149 504.174 235.256 504.174 257.258 491.471L407.849 404.527C429.851 391.824 443.405 368.349 443.405 342.943V169.055C443.405 143.65 429.851 120.174 407.849 107.471L257.258 20.5271ZM198.947 125.155C198.947 112.587 209.135 102.399 221.702 102.399C234.27 102.399 244.458 112.587 244.458 125.155V187.733C244.458 200.3 234.27 210.488 221.702 210.488C209.135 210.488 198.947 200.3 198.947 187.733V125.155ZM182.289 278.755C176.005 267.871 162.088 264.142 151.204 270.426L97.01 301.715C86.1262 307.998 82.3972 321.915 88.6809 332.799C94.9647 343.683 108.882 347.412 119.766 341.128L173.96 309.839C184.843 303.556 188.572 289.639 182.289 278.755ZM346.395 301.715C357.279 307.998 361.008 321.915 354.724 332.799C348.44 343.683 334.523 347.412 323.639 341.128L269.445 309.839C258.562 303.556 254.832 289.639 261.116 278.755C267.4 267.871 281.317 264.142 292.201 270.426L346.395 301.715ZM221.702 233.244C209.135 233.244 198.947 243.432 198.947 255.999C198.947 268.567 209.135 278.755 221.702 278.755C234.27 278.755 244.458 268.567 244.458 255.999C244.458 243.432 234.27 233.244 221.702 233.244Z" fill="url(#paint3_radial_201_66)"/>
<path d="M590.267 352C540.89 352 514.702 331.021 511.702 289.063H561.541C562.002 295.749 564.656 301.397 569.501 306.008C574.577 310.388 581.961 312.578 591.652 312.578C600.881 312.578 607.919 311.08 612.764 308.083C617.609 305.086 620.032 301.051 620.032 295.979C620.032 290.446 616.571 286.412 609.649 283.876C602.727 281.11 594.305 278.92 584.384 277.306C574.693 275.692 564.887 273.502 554.965 270.735C545.043 267.969 536.622 262.551 529.7 254.483C522.778 246.414 519.317 235.694 519.317 222.323C519.317 205.493 526.008 191.315 539.391 179.788C552.773 168.262 570.309 162.498 591.998 162.498C616.686 162.498 635.03 168.723 647.028 181.172C659.026 193.621 665.487 207.799 666.41 223.706H618.994C618.532 217.481 615.879 212.294 611.034 208.145C606.419 203.995 599.958 201.92 591.652 201.92C583.807 201.92 577.692 203.649 573.308 207.107C568.924 210.335 566.733 214.484 566.733 219.556C566.733 225.089 570.194 229.123 577.116 231.659C584.038 234.195 592.344 236.27 602.035 237.884C611.956 239.267 621.763 241.342 631.453 244.108C641.375 246.875 649.797 252.408 656.719 260.707C663.641 269.006 667.102 280.072 667.102 293.905C667.102 310.734 660.18 324.681 646.336 335.747C632.723 346.582 614.033 352 590.267 352Z" fill="white"/>
<path d="M705.857 325.027C688.783 306.815 680.246 284.222 680.246 257.249C680.246 230.276 688.783 207.799 705.857 189.817C723.162 171.604 744.967 162.498 771.27 162.498C797.113 162.498 817.417 169.76 832.184 184.284C847.182 198.808 855.719 215.061 857.796 233.043H807.265C805.419 225.204 801.15 218.749 794.459 213.677C787.768 208.606 779.923 206.07 770.924 206.07C758.003 206.07 747.851 210.796 740.467 220.248C733.084 229.469 729.392 241.803 729.392 257.249C729.392 272.695 733.084 285.144 740.467 294.596C747.851 303.818 758.003 308.428 770.924 308.428C779.923 308.428 787.768 305.892 794.459 300.821C801.15 295.749 805.419 289.294 807.265 281.456H857.796C855.719 299.437 847.182 315.69 832.184 330.214C817.417 344.738 797.113 352 771.27 352C744.967 352 723.162 343.009 705.857 325.027Z" fill="white"/>
<path d="M1047.77 271.427H916.252C917.867 283.876 922.482 293.443 930.096 300.129C937.711 306.584 947.747 309.812 960.207 309.812C968.052 309.812 975.089 308.198 981.319 304.97C987.78 301.512 992.395 296.556 995.163 290.101H1044.66C1039.35 308.544 1028.85 323.529 1013.16 335.056C997.701 346.352 979.589 352 958.823 352C932.058 352 910.138 343.124 893.063 325.373C875.989 307.622 867.452 284.798 867.452 256.903C867.452 229.93 875.989 207.453 893.063 189.471C910.138 171.489 931.942 162.498 958.477 162.498C985.011 162.498 1006.58 171.489 1023.2 189.471C1040.04 207.222 1048.46 229.7 1048.46 256.903L1047.77 271.427ZM958.13 201.92C947.055 201.92 937.941 205.032 930.788 211.257C923.636 217.251 919.021 225.55 916.944 236.155H999.317C997.471 225.781 992.971 217.481 985.819 211.257C978.666 205.032 969.436 201.92 958.13 201.92Z" fill="white"/>
<path d="M1112.47 166.648V188.779C1121.93 171.258 1139.93 162.498 1166.46 162.498C1187.92 162.498 1204.42 169.068 1215.95 182.209C1227.49 195.119 1233.26 212.64 1233.26 234.772V347.85H1184.11V240.305C1184.11 216.559 1173.85 204.686 1153.31 204.686C1141.54 204.686 1132.43 208.26 1125.97 215.406C1119.51 222.323 1116.28 231.89 1116.28 244.108V347.85H1067.13V166.648H1112.47Z" fill="white"/>
<path d="M1431.05 271.427H1299.53C1301.14 283.876 1305.76 293.443 1313.37 300.129C1320.99 306.584 1331.02 309.812 1343.48 309.812C1351.33 309.812 1358.36 308.198 1364.59 304.97C1371.05 301.512 1375.67 296.556 1378.44 290.101H1427.93C1422.62 308.544 1412.13 323.529 1396.44 335.056C1380.98 346.352 1362.86 352 1342.1 352C1315.33 352 1293.41 343.124 1276.34 325.373C1259.26 307.622 1250.73 284.798 1250.73 256.903C1250.73 229.93 1259.26 207.453 1276.34 189.471C1293.41 171.489 1315.22 162.498 1341.75 162.498C1368.29 162.498 1389.86 171.489 1406.47 189.471C1423.32 207.222 1431.74 229.7 1431.74 256.903L1431.05 271.427ZM1341.41 201.92C1330.33 201.92 1321.22 205.032 1314.06 211.257C1306.91 217.251 1302.3 225.55 1300.22 236.155H1382.59C1380.75 225.781 1376.25 217.481 1369.09 211.257C1361.94 205.032 1352.71 201.92 1341.41 201.92Z" fill="white"/>
<path d="M1556.31 165.265V211.257C1552.85 210.565 1549.62 210.219 1546.62 210.219C1532.09 210.219 1521.13 214.023 1513.74 221.631C1506.59 229.239 1503.01 241.227 1503.01 257.595V347.85H1453.87V166.648H1499.21V190.163C1509.59 173.333 1526.66 164.919 1550.43 164.919L1556.31 165.265Z" fill="white"/>
<path d="M1621.4 134.834C1615.86 140.366 1608.71 143.133 1599.94 143.133C1591.17 143.133 1584.02 140.366 1578.48 134.834C1572.94 129.301 1570.17 122.269 1570.17 113.739C1570.17 105.209 1572.94 98.1781 1578.48 92.6452C1584.02 86.8817 1591.17 84 1599.94 84C1608.71 84 1615.86 86.8817 1621.4 92.6452C1626.93 98.1781 1629.7 105.209 1629.7 113.739C1629.7 122.269 1626.93 129.301 1621.4 134.834ZM1575.36 347.85V166.648H1624.51V347.85H1575.36Z" fill="white"/>
<defs>
<linearGradient id="paint0_linear_201_66" x1="430.058" y1="125.866" x2="12.6358" y2="383.999" gradientUnits="userSpaceOnUse">
<stop stop-color="#FF007A"/>
<stop offset="0.510417" stop-color="#5012FF"/>
<stop offset="1" stop-color="#15B9FF"/>
</linearGradient>
<radialGradient id="paint1_radial_201_66" cx="0" cy="0" r="1" gradientUnits="userSpaceOnUse" gradientTransform="translate(443.569 501.333) rotate(-132.125) scale(661.553 598.647)">
<stop offset="0.171875" stop-color="#5012FF"/>
<stop offset="1" stop-color="#5012FF" stop-opacity="0"/>
</radialGradient>
<radialGradient id="paint2_radial_201_66" cx="0" cy="0" r="1" gradientUnits="userSpaceOnUse" gradientTransform="translate(-0.164251 10.666) rotate(47.8755) scale(661.553 598.647)">
<stop offset="0.182292" stop-color="#15B9FF"/>
<stop offset="1" stop-color="#15B9FF" stop-opacity="0"/>
</radialGradient>
<radialGradient id="paint3_radial_201_66" cx="0" cy="0" r="1" gradientUnits="userSpaceOnUse" gradientTransform="translate(443.569 10.666) rotate(114.331) scale(538.497 487.292)">
<stop offset="0.166667" stop-color="#FF007A"/>
<stop offset="1" stop-color="#FF007A" stop-opacity="0"/>
</radialGradient>
</defs>
</svg>
